<?xml version="1.0" encoding="UTF-8"?>
<!DOCTYPE svg PUBLIC "-//W3C//DTD SVG 1.1//EN" "http://www.w3.org/Graphics/SVG/1.1/DTD/svg11.dtd">
<svg xmlns="http://www.w3.org/2000/svg" version="1.1" width="494px" height="378px" style="shape-rendering:geometricPrecision; text-rendering:geometricPrecision; image-rendering:optimizeQuality; fill-rule:evenodd; clip-rule:evenodd" xmlns:xlink="http://www.w3.org/1999/xlink">
<g><path style="opacity:0.361" fill="#c4e4f5" d="M 87.5,163.5 C 80.8955,158.555 73.5622,157.221 65.5,159.5C 65.6107,158.883 65.944,158.383 66.5,158C 72.2707,156.139 77.9374,156.473 83.5,159C 85.6355,159.876 86.9688,161.376 87.5,163.5 Z"/></g>
<g><path style="opacity:0.82" fill="#6fb1d8" d="M 219.5,158.5 C 204.167,158.5 188.833,158.5 173.5,158.5C 173.5,162.5 173.5,166.5 173.5,170.5C 178.5,170.5 183.5,170.5 188.5,170.5C 188.5,170.833 188.5,171.167 188.5,171.5C 183.167,171.5 177.833,171.5 172.5,171.5C 172.5,166.833 172.5,162.167 172.5,157.5C 188.342,157.17 204.009,157.504 219.5,158.5 Z"/></g>
<g><path style="opacity:0.297" fill="#bce4f5" d="M 390.5,169.5 C 385.569,164.2 379.569,160.7 372.5,159C 364.139,158.295 355.806,158.462 347.5,159.5C 348.263,158.732 349.263,158.232 350.5,158C 358.5,157.333 366.5,157.333 374.5,158C 381.883,159.174 387.216,163.007 390.5,169.5 Z"/></g>
<g><path style="opacity:0.275" fill="#b2def4" d="M 411.5,180.5 C 410.387,179.054 410.22,177.387 411,175.5C 411.422,173.574 412.589,172.574 414.5,172.5C 426.5,172.5 438.5,172.5 450.5,172.5C 450.5,167.833 450.5,163.167 450.5,158.5C 437.496,158.333 424.496,158.5 411.5,159C 406.824,160.15 403.158,162.65 400.5,166.5C 399.264,168.649 398.264,170.982 397.5,173.5C 396.84,174.964 396.507,176.631 396.5,178.5C 396.582,181.98 397.248,185.313 398.5,188.5C 397.833,187.833 397.167,187.167 396.5,186.5C 396.672,185.508 396.338,184.842 395.5,184.5C 395.371,182.784 395.038,181.117 394.5,179.5C 394.89,170.232 399.223,163.398 407.5,159C 422.098,157.384 436.765,157.051 451.5,158C 452.833,163 452.833,168 451.5,173C 439.167,173.333 426.833,173.667 414.5,174C 412.45,175.636 411.45,177.802 411.5,180.5 Z"/></g>
<g><path style="opacity:0.357" fill="#c3e1ea" d="M 159.5,157.5 C 159.027,158.906 158.027,159.573 156.5,159.5C 156.973,158.094 157.973,157.427 159.5,157.5 Z"/></g>
<g><path style="opacity:1" fill="#398ec4" d="M 219.5,158.5 C 220.482,161.962 220.815,165.629 220.5,169.5C 220.672,170.492 220.338,171.158 219.5,171.5C 214.5,171.5 209.5,171.5 204.5,171.5C 208.715,169.564 213.381,168.897 218.5,169.5C 218.665,166.15 218.498,162.817 218,159.5C 216.291,162.712 214.791,162.878 213.5,160C 211.527,159.505 209.527,159.338 207.5,159.5C 207.218,164.579 206.218,164.746 204.5,160C 202.833,159.333 201.167,159.333 199.5,160C 199.324,161.692 198.824,163.192 198,164.5C 195.876,163.378 194.043,161.878 192.5,160C 190.19,159.503 187.857,159.337 185.5,159.5C 185.5,160.833 185.5,162.167 185.5,163.5C 184.5,163.5 183.5,163.5 182.5,163.5C 182.5,162.167 182.5,160.833 182.5,159.5C 180.833,159.5 179.167,159.5 177.5,159.5C 176.833,162.5 176.167,165.5 175.5,168.5C 179.514,168.334 183.514,168.501 187.5,169C 188.056,169.383 188.389,169.883 188.5,170.5C 183.5,170.5 178.5,170.5 173.5,170.5C 173.5,166.5 173.5,162.5 173.5,158.5C 188.833,158.5 204.167,158.5 219.5,158.5 Z"/></g>
<g><path style="opacity:0.004" fill="#fefffe" d="M 296.5,158.5 C 297.634,160.966 297.801,163.633 297,166.5C 296.503,163.854 296.336,161.187 296.5,158.5 Z"/></g>
<g><path style="opacity:1" fill="#1d88c9" d="M 204.5,171.5 C 202.514,188.468 201.847,205.801 202.5,223.5C 198.5,223.5 194.5,223.5 190.5,223.5C 191.153,205.801 190.486,188.468 188.5,171.5C 188.5,171.167 188.5,170.833 188.5,170.5C 188.389,169.883 188.056,169.383 187.5,169C 183.514,168.501 179.514,168.334 175.5,168.5C 176.167,165.5 176.833,162.5 177.5,159.5C 179.167,159.5 180.833,159.5 182.5,159.5C 182.5,160.833 182.5,162.167 182.5,163.5C 183.5,163.5 184.5,163.5 185.5,163.5C 185.5,162.167 185.5,160.833 185.5,159.5C 187.857,159.337 190.19,159.503 192.5,160C 194.043,161.878 195.876,163.378 198,164.5C 198.824,163.192 199.324,161.692 199.5,160C 201.167,159.333 202.833,159.333 204.5,160C 206.218,164.746 207.218,164.579 207.5,159.5C 209.527,159.338 211.527,159.505 213.5,160C 214.791,162.878 216.291,162.712 218,159.5C 218.498,162.817 218.665,166.15 218.5,169.5C 213.381,168.897 208.715,169.564 204.5,171.5 Z"/></g>
<g><path style="opacity:0.471" fill="#bfe1f3" d="M 142.5,168.5 C 137.192,159.851 129.525,156.685 119.5,159C 118.584,159.278 117.918,159.778 117.5,160.5C 116.833,160.5 116.167,160.5 115.5,160.5C 116.058,159.21 117.058,158.377 118.5,158C 129.778,154.355 137.778,157.855 142.5,168.5 Z"/></g>
<g><path style="opacity:1" fill="#3b8ab9" d="M 280.5,158.5 C 282.167,158.5 283.833,158.5 285.5,158.5C 284.312,159.364 283.145,160.364 282,161.5C 281.333,174.833 281.333,188.167 282,201.5C 283.743,206.235 285.577,210.902 287.5,215.5C 286.833,215.5 286.167,215.5 285.5,215.5C 285.104,212.279 283.771,209.612 281.5,207.5C 281.5,207.167 281.5,206.833 281.5,206.5C 280.545,190.535 280.212,174.535 280.5,158.5 Z"/></g>
<g><path style="opacity:1" fill="#2e8cc5" d="M 414.5,172.5 C 414.5,172.167 414.5,171.833 414.5,171.5C 425.09,170.69 435.757,170.19 446.5,170C 448.689,169.323 449.022,168.156 447.5,166.5C 436.854,165.501 426.187,165.168 415.5,165.5C 415.719,164.325 415.386,163.325 414.5,162.5C 412.889,163.32 412.222,164.654 412.5,166.5C 413.5,166.5 414.5,166.5 415.5,166.5C 415.5,167.5 415.5,168.5 415.5,169.5C 413.278,169.822 411.444,169.155 410,167.5C 409.544,166.256 410.044,165.423 411.5,165C 410.045,162.984 408.045,162.151 405.5,162.5C 405.5,164.167 405.5,165.833 405.5,167.5C 403.784,167.371 402.117,167.038 400.5,166.5C 403.158,162.65 406.824,160.15 411.5,159C 424.496,158.5 437.496,158.333 450.5,158.5C 450.5,163.167 450.5,167.833 450.5,172.5C 438.5,172.5 426.5,172.5 414.5,172.5 Z"/></g>
<g><path style="opacity:1" fill="#2d8bc8" d="M 159.5,157.5 C 168.06,157.223 171.894,161.223 171,169.5C 168.181,173.493 164.347,175.16 159.5,174.5C 155.389,170.262 154.389,165.262 156.5,159.5C 158.027,159.573 159.027,158.906 159.5,157.5 Z"/></g>
<g><path style="opacity:0.065" fill="#c3e9f6" d="M 159.5,157.5 C 163.921,155.691 167.754,156.691 171,160.5C 171.49,159.207 171.657,157.873 171.5,156.5C 188.167,156.5 204.833,156.5 221.5,156.5C 221.5,160.833 221.5,165.167 221.5,169.5C 221.167,169.5 220.833,169.5 220.5,169.5C 220.815,165.629 220.482,161.962 219.5,158.5C 204.009,157.504 188.342,157.17 172.5,157.5C 172.5,162.167 172.5,166.833 172.5,171.5C 170.664,172.811 168.664,173.978 166.5,175C 163.961,175.796 161.628,175.629 159.5,174.5C 164.347,175.16 168.181,173.493 171,169.5C 171.894,161.223 168.06,157.223 159.5,157.5 Z"/></g>
<g><path style="opacity:1" fill="#2b8bc6" d="M 272.5,161.5 C 262.243,160.359 251.91,160.192 241.5,161C 246.5,161.333 251.5,161.667 256.5,162C 255.953,162.925 255.287,163.758 254.5,164.5C 248.811,163.618 243.145,163.118 237.5,163C 237.167,163.333 236.833,163.667 236.5,164C 240.5,166.333 240.5,168.667 236.5,171C 237.244,172.039 238.244,172.539 239.5,172.5C 235.602,174.611 233.435,177.945 233,182.5C 232.325,189.528 232.492,196.528 233.5,203.5C 232.351,203.209 231.684,202.376 231.5,201C 230.393,193.493 230.56,185.993 232,178.5C 232.635,177.034 233.469,175.7 234.5,174.5C 233.383,171.687 231.55,171.02 229,172.5C 228.517,173.448 228.351,174.448 228.5,175.5C 227.178,175.33 226.011,175.663 225,176.5C 224.692,175.692 224.192,175.025 223.5,174.5C 219.138,187.432 219.805,200.098 225.5,212.5C 226.425,211.359 227.259,211.359 228,212.5C 228.153,215.151 228.987,217.484 230.5,219.5C 229.833,219.5 229.167,219.5 228.5,219.5C 227.5,217.833 226.167,216.5 224.5,215.5C 224.25,213.326 223.25,211.659 221.5,210.5C 218.917,201.048 217.917,191.381 218.5,181.5C 218.5,181.167 218.5,180.833 218.5,180.5C 220.028,176.453 221.861,172.453 224,168.5C 226.614,164.699 230.114,162.366 234.5,161.5C 241.532,159.935 248.699,159.269 256,159.5C 261.876,159.505 267.376,160.171 272.5,161.5 Z"/></g>
<g><path style="opacity:1" fill="#3f92c4" d="M 390.5,169.5 C 391.674,170.514 392.34,171.847 392.5,173.5C 392.5,174.833 392.5,176.167 392.5,177.5C 391.566,176.432 391.232,175.099 391.5,173.5C 390.5,173.5 389.5,173.5 388.5,173.5C 388.413,168.57 386.08,166.403 381.5,167C 380.929,165.795 380.262,164.628 379.5,163.5C 377.667,162.948 376,162.115 374.5,161C 365.833,160.333 357.167,160.333 348.5,161C 347.022,163.039 345.022,163.872 342.5,163.5C 344.167,162.167 345.833,160.833 347.5,159.5C 355.806,158.462 364.139,158.295 372.5,159C 379.569,160.7 385.569,164.2 390.5,169.5 Z"/></g>
<g><path style="opacity:1" fill="#368cc2" d="M 87.5,163.5 C 88.3627,165.421 89.0293,167.421 89.5,169.5C 86.97,166.466 83.8033,164.466 80,163.5C 79.6924,164.308 79.1924,164.975 78.5,165.5C 77.5481,163.955 77.2148,162.288 77.5,160.5C 72.5698,160.034 67.9032,160.701 63.5,162.5C 64.1667,161.5 64.8333,160.5 65.5,159.5C 73.5622,157.221 80.8955,158.555 87.5,163.5 Z"/></g>
<g><path style="opacity:0.18" fill="#cbedfa" d="M 115.5,160.5 C 113.471,162.858 111.471,165.192 109.5,167.5C 110.092,163.911 112.092,161.578 115.5,160.5 Z"/></g>
<g><path style="opacity:0.463" fill="#a0d0ea" d="M 65.5,159.5 C 64.8333,160.5 64.1667,161.5 63.5,162.5C 60.4464,164.553 58.1131,167.219 56.5,170.5C 57.7034,165.302 60.7034,161.636 65.5,159.5 Z"/></g>
<g><path style="opacity:1" fill="#1e88ca" d="M 388.5,173.5 C 387.504,173.586 386.671,173.252 386,172.5C 385.667,171.167 385.333,169.833 385,168.5C 384.215,170.286 383.049,171.786 381.5,173C 382.094,174.982 383.26,176.816 385,178.5C 386.019,177.313 387.186,176.313 388.5,175.5C 388.833,176.167 389.167,176.833 389.5,177.5C 388.892,180.145 388.392,182.812 388,185.5C 387.586,185.957 387.086,186.291 386.5,186.5C 386.732,181.408 384.399,178.408 379.5,177.5C 379.577,174.491 378.244,172.324 375.5,171C 365.811,170.307 356.144,170.473 346.5,171.5C 346.326,173.861 345.993,176.194 345.5,178.5C 344.85,178.804 344.183,179.137 343.5,179.5C 342.833,187.833 342.167,196.167 341.5,204.5C 339.003,206.957 337.67,209.623 337.5,212.5C 333.852,209.755 333.686,206.755 337,203.5C 337.533,195.768 336.7,195.768 334.5,203.5C 333.914,203.291 333.414,202.957 333,202.5C 332.223,199.571 332.39,196.737 333.5,194C 332.833,192.667 332.167,191.333 331.5,190C 332.149,186.805 332.982,183.639 334,180.5C 334.333,181.5 334.667,182.5 335,183.5C 335.687,181.432 335.52,179.432 334.5,177.5C 336.229,175.149 336.896,172.482 336.5,169.5C 337.5,166.5 339.5,164.5 342.5,163.5C 345.022,163.872 347.022,163.039 348.5,161C 357.167,160.333 365.833,160.333 374.5,161C 376,162.115 377.667,162.948 379.5,163.5C 380.262,164.628 380.929,165.795 381.5,167C 386.08,166.403 388.413,168.57 388.5,173.5 Z"/></g>
<g><path style="opacity:0.459" fill="#c1e3f5" d="M 87.5,163.5 C 89.9305,165.046 91.2639,167.379 91.5,170.5C 90.8333,170.167 90.1667,169.833 89.5,169.5C 89.0293,167.421 88.3627,165.421 87.5,163.5 Z"/></g>
<g><path style="opacity:0.2" fill="#c0e5f6" d="M 347.5,159.5 C 345.833,160.833 344.167,162.167 342.5,163.5C 339.5,164.5 337.5,166.5 336.5,169.5C 334.178,170.802 332.845,172.802 332.5,175.5C 332.167,175.5 331.833,175.5 331.5,175.5C 333.824,167.176 339.157,161.843 347.5,159.5 Z"/></g>
<g><path style="opacity:0.404" fill="#abd6ed" d="M 156.5,159.5 C 154.389,165.262 155.389,170.262 159.5,174.5C 154.204,172.234 152.37,168.234 154,162.5C 154.377,161.058 155.21,160.058 156.5,159.5 Z"/></g>
<g><path style="opacity:1" fill="#308cc2" d="M 379.5,177.5 C 374.82,173.027 369.154,171.36 362.5,172.5C 358.833,172.667 355.167,172.833 351.5,173C 348.977,174.36 346.977,176.193 345.5,178.5C 345.993,176.194 346.326,173.861 346.5,171.5C 356.144,170.473 365.811,170.307 375.5,171C 378.244,172.324 379.577,174.491 379.5,177.5 Z"/></g>
<g><path style="opacity:1" fill="#1d88cb" d="M 414.5,171.5 C 412.833,171.5 411.167,171.5 409.5,171.5C 409.762,172.978 409.429,174.311 408.5,175.5C 406.2,177.023 404.367,179.023 403,181.5C 402.355,180.354 401.522,179.354 400.5,178.5C 400.709,177.914 401.043,177.414 401.5,177C 397.933,175.293 397.766,173.459 401,171.5C 401.64,169.735 401.473,168.068 400.5,166.5C 402.117,167.038 403.784,167.371 405.5,167.5C 405.5,165.833 405.5,164.167 405.5,162.5C 408.045,162.151 410.045,162.984 411.5,165C 410.044,165.423 409.544,166.256 410,167.5C 411.444,169.155 413.278,169.822 415.5,169.5C 415.5,168.5 415.5,167.5 415.5,166.5C 414.5,166.5 413.5,166.5 412.5,166.5C 412.222,164.654 412.889,163.32 414.5,162.5C 415.386,163.325 415.719,164.325 415.5,165.5C 426.187,165.168 436.854,165.501 447.5,166.5C 449.022,168.156 448.689,169.323 446.5,170C 435.757,170.19 425.09,170.69 414.5,171.5 Z"/></g>
<g><path style="opacity:0.316" fill="#b3dcf0" d="M 248.5,198.5 C 248.5,198.167 248.5,197.833 248.5,197.5C 253.233,197.223 257.9,197.557 262.5,198.5C 264.974,202.012 265.141,205.679 263,209.5C 255.253,210.482 247.42,210.815 239.5,210.5C 237.471,208.142 235.471,205.808 233.5,203.5C 232.492,196.528 232.325,189.528 233,182.5C 233.435,177.945 235.602,174.611 239.5,172.5C 250.752,171.523 262.086,171.189 273.5,171.5C 273.5,166.833 273.5,162.167 273.5,157.5C 261.467,157.258 249.467,157.758 237.5,159C 236.058,159.377 235.058,160.21 234.5,161.5C 230.114,162.366 226.614,164.699 224,168.5C 221.861,172.453 220.028,176.453 218.5,180.5C 218.91,176.613 219.91,172.947 221.5,169.5C 225.173,164.001 230.173,160.168 236.5,158C 249.114,156.602 261.781,156.102 274.5,156.5C 274.807,162.093 274.473,167.593 273.5,173C 262.5,173.333 251.5,173.667 240.5,174C 237.619,175.251 235.786,177.417 235,180.5C 228.747,204.243 237.58,213.743 261.5,209C 264.059,205.925 264.059,202.925 261.5,200C 257.199,199.033 252.866,198.533 248.5,198.5 Z"/></g>
<g><path style="opacity:0.994" fill="#4393c5" d="M 239.5,172.5 C 250.116,170.523 261.116,169.856 272.5,170.5C 272.5,167.5 272.5,164.5 272.5,161.5C 267.376,160.171 261.876,159.505 256,159.5C 248.699,159.269 241.532,159.935 234.5,161.5C 235.058,160.21 236.058,159.377 237.5,159C 249.467,157.758 261.467,157.258 273.5,157.5C 273.5,162.167 273.5,166.833 273.5,171.5C 262.086,171.189 250.752,171.523 239.5,172.5 Z"/></g>
<g><path style="opacity:1" fill="#1e88ca" d="M 272.5,161.5 C 272.5,164.5 272.5,167.5 272.5,170.5C 261.116,169.856 250.116,170.523 239.5,172.5C 238.244,172.539 237.244,172.039 236.5,171C 240.5,168.667 240.5,166.333 236.5,164C 236.833,163.667 237.167,163.333 237.5,163C 243.145,163.118 248.811,163.618 254.5,164.5C 255.287,163.758 255.953,162.925 256.5,162C 251.5,161.667 246.5,161.333 241.5,161C 251.91,160.192 262.243,160.359 272.5,161.5 Z"/></g>
<g><path style="opacity:0.153" fill="#ddf8ff" d="M 91.5,171.5 C 93.2132,172.635 93.8799,174.302 93.5,176.5C 92.4625,175.07 91.7959,173.403 91.5,171.5 Z"/></g>
<g><path style="opacity:0.588" fill="#a8d7ee" d="M 379.5,177.5 C 381.944,185.745 382.111,194.078 380,202.5C 379.623,203.942 378.79,204.942 377.5,205.5C 380.329,196.1 380.163,186.767 377,177.5C 375.681,175.513 373.848,174.346 371.5,174C 365.5,173.333 359.5,173.333 353.5,174C 348.08,176.323 345.246,180.49 345,186.5C 344.502,189.817 344.335,193.15 344.5,196.5C 343.086,190.52 343.419,184.52 345.5,178.5C 346.977,176.193 348.977,174.36 351.5,173C 355.167,172.833 358.833,172.667 362.5,172.5C 369.154,171.36 374.82,173.027 379.5,177.5 Z"/></g>
<g><path style="opacity:1" fill="#4693c3" d="M 76.5,173.5 C 78.1316,173.825 79.1316,174.825 79.5,176.5C 82.3927,183.946 84.3927,191.613 85.5,199.5C 85.1667,199.5 84.8333,199.5 84.5,199.5C 84.3215,196.784 83.8215,194.117 83,191.5C 82.7996,189.68 81.9663,188.347 80.5,187.5C 80.2736,183.708 79.4403,180.041 78,176.5C 77.6174,175.944 77.1174,175.611 76.5,175.5C 76.5,175.167 76.5,174.833 76.5,174.5C 76.5,174.167 76.5,173.833 76.5,173.5 Z"/></g>
<g><path style="opacity:1" fill="#1e88ca" d="M 89.5,169.5 C 87.2809,174.726 88.4475,179.393 93,183.5C 93.2868,185.891 93.7868,188.224 94.5,190.5C 94.9569,191.298 95.6236,191.631 96.5,191.5C 95.9947,194.841 95.8281,198.174 96,201.5C 97.0652,197.622 97.8985,197.622 98.5,201.5C 98.2135,204.267 97.5468,206.934 96.5,209.5C 94.3635,210.472 93.1968,212.139 93,214.5C 91.3695,211.962 90.0361,209.295 89,206.5C 88.3131,204.432 88.4798,202.432 89.5,200.5C 88.3088,200.595 86.9755,200.262 85.5,199.5C 84.3927,191.613 82.3927,183.946 79.5,176.5C 79.1316,174.825 78.1316,173.825 76.5,173.5C 75.0813,172.549 73.4147,172.216 71.5,172.5C 70.1411,173.007 69.1411,174.007 68.5,175.5C 67.52,178.086 67.1866,180.753 67.5,183.5C 66.4138,183.38 65.7472,182.713 65.5,181.5C 64.1831,177.058 64.5165,172.725 66.5,168.5C 64.3259,167.107 62.4926,167.44 61,169.5C 60.5357,168.906 60.369,168.239 60.5,167.5C 61.925,166.078 62.925,164.411 63.5,162.5C 67.9032,160.701 72.5698,160.034 77.5,160.5C 77.2148,162.288 77.5481,163.955 78.5,165.5C 79.1924,164.975 79.6924,164.308 80,163.5C 83.8033,164.466 86.97,166.466 89.5,169.5 Z"/></g>
<g><path style="opacity:1" fill="#1e88c9" d="M 117.5,160.5 C 120.85,160.335 124.183,160.502 127.5,161C 126.612,162.717 127.279,163.884 129.5,164.5C 131.863,165.681 134.197,165.681 136.5,164.5C 139.144,165.741 139.977,167.741 139,170.5C 137.333,169.833 135.667,169.167 134,168.5C 132.249,169.174 130.583,169.507 129,169.5C 128.167,168.5 127.333,167.5 126.5,166.5C 125.143,168.186 123.81,169.852 122.5,171.5C 122.5,185.167 122.5,198.833 122.5,212.5C 120.174,215.739 117.34,218.406 114,220.5C 113.667,220.167 113.333,219.833 113,219.5C 110.325,221.054 107.492,222.387 104.5,223.5C 101.847,221.276 98.8468,219.609 95.5,218.5C 94.6143,217.675 94.281,216.675 94.5,215.5C 97.1684,215.666 99.5017,216.666 101.5,218.5C 102.988,216.729 104.821,215.396 107,214.5C 108.264,216.607 110.097,217.607 112.5,217.5C 112.545,214.923 111.545,212.923 109.5,211.5C 110.3,197.211 110.8,182.878 111,168.5C 113.883,166.392 116.05,163.725 117.5,160.5 Z"/></g>
<g><path style="opacity:0.819" fill="#5ca5d0" d="M 122.5,171.5 C 124.735,171.205 126.735,171.539 128.5,172.5C 126.856,172.286 125.356,172.62 124,173.5C 123.5,185.829 123.333,198.162 123.5,210.5C 123.5,211.167 123.5,211.833 123.5,212.5C 123.167,212.5 122.833,212.5 122.5,212.5C 122.5,198.833 122.5,185.167 122.5,171.5 Z"/></g>
<g><path style="opacity:1" fill="#5198c3" d="M 188.5,171.5 C 190.486,188.468 191.153,205.801 190.5,223.5C 194.5,223.5 198.5,223.5 202.5,223.5C 201.847,205.801 202.514,188.468 204.5,171.5C 204.5,189.167 204.5,206.833 204.5,224.5C 199.167,224.5 193.833,224.5 188.5,224.5C 188.5,206.833 188.5,189.167 188.5,171.5 Z"/></g>
<g><path style="opacity:1" fill="#2689c5" d="M 400.5,166.5 C 401.473,168.068 401.64,169.735 401,171.5C 397.766,173.459 397.933,175.293 401.5,177C 401.043,177.414 400.709,177.914 400.5,178.5C 401.522,179.354 402.355,180.354 403,181.5C 404.367,179.023 406.2,177.023 408.5,175.5C 409.429,174.311 409.762,172.978 409.5,171.5C 411.167,171.5 412.833,171.5 414.5,171.5C 414.5,171.833 414.5,172.167 414.5,172.5C 412.589,172.574 411.422,173.574 411,175.5C 410.22,177.387 410.387,179.054 411.5,180.5C 411.733,182.062 412.4,183.395 413.5,184.5C 422.324,185.33 431.324,185.83 440.5,186C 441.056,186.383 441.389,186.883 441.5,187.5C 439.143,187.337 436.81,187.503 434.5,188C 434.273,189.135 433.94,190.302 433.5,191.5C 432.692,191.192 432.025,190.692 431.5,190C 426.467,189.829 421.467,189.329 416.5,188.5C 412.911,186.747 410.077,184.081 408,180.5C 406.923,184.891 405.757,189.224 404.5,193.5C 405.833,193.5 407.167,193.5 408.5,193.5C 408.886,189.262 410.552,188.596 413.5,191.5C 411.73,192.82 411.397,194.32 412.5,196C 421.851,196.168 431.184,196.668 440.5,197.5C 442.541,201.679 445.208,202.346 448.5,199.5C 446.874,198.01 445.208,196.51 443.5,195C 444.108,194.13 444.941,193.63 446,193.5C 447.927,195.016 449.094,197.016 449.5,199.5C 448.254,202.028 447.254,204.695 446.5,207.5C 445.808,206.975 445.308,206.308 445,205.5C 443.648,207.594 443.148,209.927 443.5,212.5C 445.833,211.833 448.167,211.167 450.5,210.5C 449.737,207.859 449.57,205.192 450,202.5C 451.113,203.305 452.279,203.972 453.5,204.5C 453.5,206.833 453.5,209.167 453.5,211.5C 452.149,219.198 447.483,223.198 439.5,223.5C 427.162,223.667 414.829,223.5 402.5,223C 401.873,221.262 401.54,219.429 401.5,217.5C 401.556,215.36 402.223,213.694 403.5,212.5C 403.5,215.833 403.5,219.167 403.5,222.5C 416.5,222.5 429.5,222.5 442.5,222.5C 442.5,221.5 442.5,220.5 442.5,219.5C 444.5,219.5 446.5,219.5 448.5,219.5C 448.915,217.052 447.915,215.719 445.5,215.5C 443.451,218.147 440.784,218.981 437.5,218C 439.174,216.494 440.174,214.661 440.5,212.5C 439.167,212.5 437.833,212.5 436.5,212.5C 436.5,212.167 436.5,211.833 436.5,211.5C 437.167,211.5 437.5,211.167 437.5,210.5C 440.287,209.622 441.62,207.622 441.5,204.5C 441.62,201.378 440.287,199.378 437.5,198.5C 428.342,197.67 419.009,197.17 409.5,197C 407.372,196.345 405.372,195.511 403.5,194.5C 401.774,192.772 400.441,190.772 399.5,188.5C 398.098,183.616 397.431,178.616 397.5,173.5C 398.264,170.982 399.264,168.649 400.5,166.5 Z"/></g>
<g><path style="opacity:1" fill="#4795c8" d="M 89.5,169.5 C 90.1667,169.833 90.8333,170.167 91.5,170.5C 91.5,170.833 91.5,171.167 91.5,171.5C 91.7959,173.403 92.4625,175.07 93.5,176.5C 94.7682,178.905 95.4349,181.572 95.5,184.5C 96.2186,186.764 96.552,189.097 96.5,191.5C 95.6236,191.631 94.9569,191.298 94.5,190.5C 93.7868,188.224 93.2868,185.891 93,183.5C 88.4475,179.393 87.2809,174.726 89.5,169.5 Z"/></g>
<g><path style="opacity:0.596" fill="#a7d2eb" d="M 142.5,168.5 C 145.269,173.801 147.269,179.468 148.5,185.5C 146.241,182.474 144.575,179.14 143.5,175.5C 143.5,174.833 143.167,174.5 142.5,174.5C 142.5,172.5 142.5,170.5 142.5,168.5 Z"/></g>
<g><path style="opacity:1" fill="#4290c1" d="M 115.5,160.5 C 116.167,160.5 116.833,160.5 117.5,160.5C 116.05,163.725 113.883,166.392 111,168.5C 110.8,182.878 110.3,197.211 109.5,211.5C 107.545,212.323 105.545,212.49 103.5,212C 102.748,211.329 102.414,210.496 102.5,209.5C 104.339,210.752 106.172,210.752 108,209.5C 108.237,195.475 108.737,181.475 109.5,167.5C 111.471,165.192 113.471,162.858 115.5,160.5 Z"/></g>
<g><path style="opacity:0.06" fill="#d2f8fc" d="M 109.5,167.5 C 108.737,181.475 108.237,195.475 108,209.5C 106.172,210.752 104.339,210.752 102.5,209.5C 102.5,208.167 102.5,206.833 102.5,205.5C 103.249,206.531 103.915,207.698 104.5,209C 105.449,209.617 106.282,209.451 107,208.5C 107.333,195.833 107.667,183.167 108,170.5C 108.232,169.263 108.732,168.263 109.5,167.5 Z"/></g>
<g><path style="opacity:0.28" fill="#bae1f7" d="M 296.5,202.5 C 295.833,202.167 295.167,201.833 294.5,201.5C 294.5,200.833 294.5,200.167 294.5,199.5C 294.5,185.5 294.5,171.5 294.5,157.5C 289.637,157.181 284.97,157.514 280.5,158.5C 280.212,174.535 280.545,190.535 281.5,206.5C 280.883,206.389 280.383,206.056 280,205.5C 279.654,208.576 278.988,211.576 278,214.5C 277.617,215.056 277.117,215.389 276.5,215.5C 279.109,208.152 279.109,200.819 276.5,193.5C 277.117,193.611 277.617,193.944 278,194.5C 278.333,192.833 278.667,191.167 279,189.5C 278.906,178.789 279.073,168.122 279.5,157.5C 284.792,156.505 290.125,156.172 295.5,156.5C 295.198,171.881 295.531,187.215 296.5,202.5 Z"/></g>
<g><path style="opacity:0.808" fill="#67a9d3" d="M 280.5,158.5 C 284.97,157.514 289.637,157.181 294.5,157.5C 294.5,171.5 294.5,185.5 294.5,199.5C 293.504,186.01 293.171,172.344 293.5,158.5C 290.833,158.5 288.167,158.5 285.5,158.5C 283.833,158.5 282.167,158.5 280.5,158.5 Z"/></g>
<g><path style="opacity:0.251" fill="#b7dff3" d="M 76.5,175.5 C 77.1174,175.611 77.6174,175.944 78,176.5C 79.4403,180.041 80.2736,183.708 80.5,187.5C 78.5949,183.785 77.2616,179.785 76.5,175.5 Z"/></g>
<g><path style="opacity:0.231" fill="#bfe4f5" d="M 129.5,178.5 C 131.89,181.689 133.223,185.356 133.5,189.5C 131.399,186.203 130.065,182.537 129.5,178.5 Z"/></g>
<g><path style="opacity:0.953" fill="#61a3ca" d="M 397.5,173.5 C 397.431,178.616 398.098,183.616 399.5,188.5C 399.167,188.5 398.833,188.5 398.5,188.5C 397.248,185.313 396.582,181.98 396.5,178.5C 396.507,176.631 396.84,174.964 397.5,173.5 Z"/></g>
<g><path style="opacity:1" fill="#1d88ca" d="M 60.5,167.5 C 60.369,168.239 60.5357,168.906 61,169.5C 62.4926,167.44 64.3259,167.107 66.5,168.5C 64.5165,172.725 64.1831,177.058 65.5,181.5C 65.7472,182.713 66.4138,183.38 67.5,183.5C 69.4809,196.124 70.1476,209.124 69.5,222.5C 65.8333,222.5 62.1667,222.5 58.5,222.5C 58.3334,205.83 58.5001,189.163 59,172.5C 59.1981,170.618 59.6981,168.952 60.5,167.5 Z"/></g>
<g><path style="opacity:1" fill="#428ec1" d="M 63.5,162.5 C 62.925,164.411 61.925,166.078 60.5,167.5C 59.6981,168.952 59.1981,170.618 59,172.5C 58.5001,189.163 58.3334,205.83 58.5,222.5C 62.1667,222.5 65.8333,222.5 69.5,222.5C 70.1476,209.124 69.4809,196.124 67.5,183.5C 67.1866,180.753 67.52,178.086 68.5,175.5C 69.1411,174.007 70.1411,173.007 71.5,172.5C 71.5,189.833 71.5,207.167 71.5,224.5C 66.5,224.5 61.5,224.5 56.5,224.5C 56.3075,206.542 56.3075,188.542 56.5,170.5C 58.1131,167.219 60.4464,164.553 63.5,162.5 Z"/></g>
<g><path style="opacity:0.854" fill="#92c5e2" d="M 271.5,187.5 C 264.085,184.944 256.418,183.944 248.5,184.5C 248.5,188.833 248.5,193.167 248.5,197.5C 247.514,193.03 247.181,188.363 247.5,183.5C 252.65,182.349 257.984,182.183 263.5,183C 266.684,183.754 269.351,185.254 271.5,187.5 Z"/></g>
<g><path style="opacity:0.267" fill="#b6e0f6" d="M 411.5,180.5 C 412.882,181.801 414.548,182.634 416.5,183C 424.677,183.171 432.677,183.671 440.5,184.5C 431.5,184.5 422.5,184.5 413.5,184.5C 412.4,183.395 411.733,182.062 411.5,180.5 Z"/></g>
<g><path style="opacity:0.039" fill="#d9fafe" d="M 204.5,171.5 C 209.5,171.5 214.5,171.5 219.5,171.5C 215.03,172.486 210.363,172.819 205.5,172.5C 205.5,190.167 205.5,207.833 205.5,225.5C 199.642,225.822 193.975,225.489 188.5,224.5C 193.833,224.5 199.167,224.5 204.5,224.5C 204.5,206.833 204.5,189.167 204.5,171.5 Z"/></g>
<g><path style="opacity:0.412" fill="#90caed" d="M 392.5,173.5 C 394.074,175.102 394.741,177.102 394.5,179.5C 395.038,181.117 395.371,182.784 395.5,184.5C 395.5,185.167 395.5,185.833 395.5,186.5C 395.815,190.371 395.482,194.038 394.5,197.5C 394.5,196.833 394.5,196.167 394.5,195.5C 394.816,189.25 394.15,183.25 392.5,177.5C 392.5,176.167 392.5,174.833 392.5,173.5 Z"/></g>
<g><path style="opacity:0.243" fill="#b0ddf1" d="M 442.5,184.5 C 446.992,185.347 450.325,187.68 452.5,191.5C 449.053,189.129 445.72,186.795 442.5,184.5 Z"/></g>
<g><path style="opacity:1" fill="#4794c2" d="M 413.5,184.5 C 422.5,184.5 431.5,184.5 440.5,184.5C 441.167,184.5 441.833,184.5 442.5,184.5C 445.72,186.795 449.053,189.129 452.5,191.5C 453.371,194.112 454.037,196.779 454.5,199.5C 454.817,203.702 454.483,207.702 453.5,211.5C 453.5,209.167 453.5,206.833 453.5,204.5C 453.947,197.906 451.614,192.739 446.5,189C 444.618,188.802 442.952,188.302 441.5,187.5C 441.389,186.883 441.056,186.383 440.5,186C 431.324,185.83 422.324,185.33 413.5,184.5 Z"/></g>
<g><path style="opacity:0.451" fill="#add8ef" d="M 218.5,181.5 C 217.917,191.381 218.917,201.048 221.5,210.5C 219.287,208.042 218.121,205.042 218,201.5C 217.179,194.654 217.346,187.987 218.5,181.5 Z"/></g>
<g><path style="opacity:0.075" fill="#dbf4ff" d="M 172.5,171.5 C 177.833,171.5 183.167,171.5 188.5,171.5C 188.5,189.167 188.5,206.833 188.5,224.5C 187.503,207.341 187.17,190.008 187.5,172.5C 182.305,172.821 177.305,172.487 172.5,171.5 Z"/></g>
<g><path style="opacity:1" fill="#1d88cb" d="M 441.5,187.5 C 442.952,188.302 444.618,188.802 446.5,189C 451.614,192.739 453.947,197.906 453.5,204.5C 452.279,203.972 451.113,203.305 450,202.5C 449.57,205.192 449.737,207.859 450.5,210.5C 448.167,211.167 445.833,211.833 443.5,212.5C 443.148,209.927 443.648,207.594 445,205.5C 445.308,206.308 445.808,206.975 446.5,207.5C 447.254,204.695 448.254,202.028 449.5,199.5C 449.094,197.016 447.927,195.016 446,193.5C 444.941,193.63 444.108,194.13 443.5,195C 445.208,196.51 446.874,198.01 448.5,199.5C 445.208,202.346 442.541,201.679 440.5,197.5C 431.184,196.668 421.851,196.168 412.5,196C 411.397,194.32 411.73,192.82 413.5,191.5C 410.552,188.596 408.886,189.262 408.5,193.5C 407.167,193.5 405.833,193.5 404.5,193.5C 405.757,189.224 406.923,184.891 408,180.5C 410.077,184.081 412.911,186.747 416.5,188.5C 421.467,189.329 426.467,189.829 431.5,190C 432.025,190.692 432.692,191.192 433.5,191.5C 433.94,190.302 434.273,189.135 434.5,188C 436.81,187.503 439.143,187.337 441.5,187.5 Z"/></g>
<g><path style="opacity:0.2" fill="#b6ddf2" d="M 95.5,184.5 C 96.1174,184.611 96.6174,184.944 97,185.5C 98.15,189.112 98.9834,192.778 99.5,196.5C 98.0652,195.087 97.0652,193.42 96.5,191.5C 96.552,189.097 96.2186,186.764 95.5,184.5 Z"/></g>
<g><path style="opacity:0.243" fill="#a4d3eb" d="M 271.5,187.5 C 273.773,187.957 275.106,189.29 275.5,191.5C 273.167,191.167 271.833,189.833 271.5,187.5 Z"/></g>
<g><path style="opacity:0.592" fill="#87c2e4" d="M 155.5,176.5 C 160.833,176.5 166.167,176.5 171.5,176.5C 171.5,192.833 171.5,209.167 171.5,225.5C 162.651,225.826 153.984,225.493 145.5,224.5C 153.833,224.5 162.167,224.5 170.5,224.5C 170.5,208.833 170.5,193.167 170.5,177.5C 165.833,177.5 161.167,177.5 156.5,177.5C 156.666,186.839 156.5,196.173 156,205.5C 154.519,204.529 153.685,203.196 153.5,201.5C 154.117,201.611 154.617,201.944 155,202.5C 155.5,193.84 155.666,185.173 155.5,176.5 Z"/></g>
<g><path style="opacity:0.212" fill="#c0e3f2" d="M 247.5,183.5 C 247.181,188.363 247.514,193.03 248.5,197.5C 248.5,197.833 248.5,198.167 248.5,198.5C 247.191,196.429 246.525,193.929 246.5,191C 246.503,188.31 246.836,185.81 247.5,183.5 Z"/></g>
<g><path style="opacity:0.231" fill="#c8e6f5" d="M 398.5,188.5 C 398.833,188.5 399.167,188.5 399.5,188.5C 400.441,190.772 401.774,192.772 403.5,194.5C 400.438,193.732 398.772,191.732 398.5,188.5 Z"/></g>
<g><path style="opacity:0.298" fill="#b6dff1" d="M 133.5,189.5 C 135.601,192.797 136.935,196.463 137.5,200.5C 135.399,197.203 134.065,193.537 133.5,189.5 Z"/></g>
<g><path style="opacity:0.169" fill="#bee1f3" d="M 80.5,187.5 C 81.9663,188.347 82.7996,189.68 83,191.5C 83.8215,194.117 84.3215,196.784 84.5,199.5C 82.5683,195.805 81.235,191.805 80.5,187.5 Z"/></g>
<g><path style="opacity:0.192" fill="#c6e5f8" d="M 452.5,191.5 C 454.655,193.617 455.655,196.284 455.5,199.5C 455.167,199.5 454.833,199.5 454.5,199.5C 454.037,196.779 453.371,194.112 452.5,191.5 Z"/></g>
<g><path style="opacity:1" fill="#2e8bc2" d="M 142.5,168.5 C 142.5,170.5 142.5,172.5 142.5,174.5C 138.606,173.136 137.94,173.969 140.5,177C 138.442,180.201 137.442,179.701 137.5,175.5C 136.5,175.5 135.5,175.5 134.5,175.5C 134.5,174.5 134.5,173.5 134.5,172.5C 133.167,172.5 131.833,172.5 130.5,172.5C 130.858,176.829 132.525,180.496 135.5,183.5C 136.324,186.785 136.824,190.118 137,193.5C 138.895,199.195 140.895,204.861 143,210.5C 144.558,209.655 145.558,210.321 146,212.5C 146.61,215.827 147.11,219.161 147.5,222.5C 148.5,222.5 149.5,222.5 150.5,222.5C 152.042,212.005 153.042,212.005 153.5,222.5C 154.833,222.5 156.167,222.5 157.5,222.5C 158.167,218.5 158.833,218.5 159.5,222.5C 160.5,222.5 161.5,222.5 162.5,222.5C 162.515,211.915 163.182,211.915 164.5,222.5C 165.736,223.246 167.07,223.579 168.5,223.5C 168.832,212.813 168.499,202.146 167.5,191.5C 166.692,191.192 166.025,190.692 165.5,190C 168.465,186.627 169.131,182.793 167.5,178.5C 164.881,178.232 162.381,178.565 160,179.5C 161.035,182.262 161.535,185.262 161.5,188.5C 160.178,188.33 159.011,188.663 158,189.5C 157.83,195.528 157.33,201.528 156.5,207.5C 152.763,205.702 150.763,202.702 150.5,198.5C 149.369,197.396 148.535,197.729 148,199.5C 149.179,193.549 147.846,188.216 144,183.5C 142.956,184.623 142.29,185.956 142,187.5C 141.527,183.388 142.027,179.388 143.5,175.5C 144.575,179.14 146.241,182.474 148.5,185.5C 148.259,187.898 148.926,189.898 150.5,191.5C 150.723,195.162 151.723,198.495 153.5,201.5C 153.685,203.196 154.519,204.529 156,205.5C 156.5,196.173 156.666,186.839 156.5,177.5C 161.167,177.5 165.833,177.5 170.5,177.5C 170.5,193.167 170.5,208.833 170.5,224.5C 162.167,224.5 153.833,224.5 145.5,224.5C 144.204,216.265 141.537,208.599 137.5,201.5C 137.5,201.167 137.5,200.833 137.5,200.5C 136.935,196.463 135.601,192.797 133.5,189.5C 133.223,185.356 131.89,181.689 129.5,178.5C 129.5,178.167 129.5,177.833 129.5,177.5C 129.634,175.708 129.301,174.042 128.5,172.5C 126.735,171.539 124.735,171.205 122.5,171.5C 123.81,169.852 125.143,168.186 126.5,166.5C 127.333,167.5 128.167,168.5 129,169.5C 130.583,169.507 132.249,169.174 134,168.5C 135.667,169.167 137.333,169.833 139,170.5C 139.977,167.741 139.144,165.741 136.5,164.5C 134.197,165.681 131.863,165.681 129.5,164.5C 127.279,163.884 126.612,162.717 127.5,161C 124.183,160.502 120.85,160.335 117.5,160.5C 117.918,159.778 118.584,159.278 119.5,159C 129.525,156.685 137.192,159.851 142.5,168.5 Z"/></g>
<g><path style="opacity:0.204" fill="#9dcbe6" d="M 403.5,194.5 C 405.372,195.511 407.372,196.345 409.5,197C 419.009,197.17 428.342,197.67 437.5,198.5C 429.5,198.5 421.5,198.5 413.5,198.5C 409.349,198.901 406.015,197.567 403.5,194.5 Z"/></g>
<g><path style="opacity:0.788" fill="#a3d0e9" d="M 99.5,196.5 C 101.472,199.084 102.472,202.084 102.5,205.5C 100.528,202.916 99.5275,199.916 99.5,196.5 Z"/></g>
<g><path style="opacity:0.167" fill="#caebfc" d="M 128.5,172.5 C 129.301,174.042 129.634,175.708 129.5,177.5C 128.521,176.235 127.521,174.901 126.5,173.5C 125.914,173.709 125.414,174.043 125,174.5C 124.831,186.674 124.331,198.674 123.5,210.5C 123.333,198.162 123.5,185.829 124,173.5C 125.356,172.62 126.856,172.286 128.5,172.5 Z"/></g>
<g><path style="opacity:0.114" fill="#c2e2f2" d="M 155.5,176.5 C 155.666,185.173 155.5,193.84 155,202.5C 154.617,201.944 154.117,201.611 153.5,201.5C 151.723,198.495 150.723,195.162 150.5,191.5C 151.891,193.96 153.058,196.626 154,199.5C 154.171,191.656 154.671,183.989 155.5,176.5 Z"/></g>
<g><path style="opacity:0.102" fill="#cceffd" d="M 71.5,172.5 C 73.4147,172.216 75.0813,172.549 76.5,173.5C 76.5,173.833 76.5,174.167 76.5,174.5C 75.3121,173.316 74.1455,173.316 73,174.5C 72.5008,191.182 72.5008,207.849 73,224.5C 72.2613,225.574 71.2613,226.241 70,226.5C 65.3518,225.913 60.8518,225.246 56.5,224.5C 61.5,224.5 66.5,224.5 71.5,224.5C 71.5,207.167 71.5,189.833 71.5,172.5 Z"/></g>
<g><path style="opacity:1" fill="#2f8ac3" d="M 336.5,169.5 C 336.896,172.482 336.229,175.149 334.5,177.5C 335.52,179.432 335.687,181.432 335,183.5C 334.667,182.5 334.333,181.5 334,180.5C 332.982,183.639 332.149,186.805 331.5,190C 332.167,191.333 332.833,192.667 333.5,194C 332.39,196.737 332.223,199.571 333,202.5C 333.414,202.957 333.914,203.291 334.5,203.5C 336.7,195.768 337.533,195.768 337,203.5C 333.686,206.755 333.852,209.755 337.5,212.5C 337.67,209.623 339.003,206.957 341.5,204.5C 342.167,196.167 342.833,187.833 343.5,179.5C 344.183,179.137 344.85,178.804 345.5,178.5C 343.419,184.52 343.086,190.52 344.5,196.5C 344.5,196.833 344.5,197.167 344.5,197.5C 344.833,200.167 345.167,202.833 345.5,205.5C 343.637,206.967 342.304,208.967 341.5,211.5C 343.625,215.741 346.458,216.408 350,213.5C 351.188,214.563 351.688,215.897 351.5,217.5C 348.052,217.892 344.886,217.225 342,215.5C 340.273,215.646 340.106,216.313 341.5,217.5C 344.137,218.569 346.47,220.069 348.5,222C 360.291,224.718 371.624,223.552 382.5,218.5C 380.726,217.813 379.059,216.98 377.5,216C 379.735,214.643 382.069,214.81 384.5,216.5C 385.5,214.833 386.833,213.5 388.5,212.5C 389.767,210.629 389.767,208.796 388.5,207C 391.936,203.243 393.436,198.743 393,193.5C 393.278,194.416 393.778,195.082 394.5,195.5C 394.5,196.167 394.5,196.833 394.5,197.5C 393.925,201.523 393.259,205.523 392.5,209.5C 390.654,211.03 389.654,213.03 389.5,215.5C 386.159,217.521 383.159,219.854 380.5,222.5C 374.688,223.897 368.688,224.564 362.5,224.5C 357.48,224.332 352.48,223.999 347.5,223.5C 345.967,221.755 343.967,220.755 341.5,220.5C 338.805,217.474 336.138,214.474 333.5,211.5C 329.956,199.59 329.623,187.59 332.5,175.5C 332.845,172.802 334.178,170.802 336.5,169.5 Z"/></g>
<g><path style="opacity:0.58" fill="#addaef" d="M 296.5,203.5 C 298.525,205.196 300.525,206.863 302.5,208.5C 299.288,208.288 297.288,206.621 296.5,203.5 Z"/></g>
<g><path style="opacity:0.141" fill="#c2e4f2" d="M 395.5,186.5 C 395.833,186.5 396.167,186.5 396.5,186.5C 396.607,192.88 396.107,199.213 395,205.5C 394.8,207.32 393.966,208.653 392.5,209.5C 393.259,205.523 393.925,201.523 394.5,197.5C 395.482,194.038 395.815,190.371 395.5,186.5 Z"/></g>
<g><path style="opacity:0.176" fill="#bce0f0" d="M 84.5,199.5 C 84.8333,199.5 85.1667,199.5 85.5,199.5C 87.1234,203.327 88.1234,207.327 88.5,211.5C 86.2597,207.902 84.9264,203.902 84.5,199.5 Z"/></g>
<g><path style="opacity:1" fill="#1d88cb" d="M 142.5,174.5 C 143.167,174.5 143.5,174.833 143.5,175.5C 142.027,179.388 141.527,183.388 142,187.5C 142.29,185.956 142.956,184.623 144,183.5C 147.846,188.216 149.179,193.549 148,199.5C 148.535,197.729 149.369,197.396 150.5,198.5C 150.763,202.702 152.763,205.702 156.5,207.5C 157.33,201.528 157.83,195.528 158,189.5C 159.011,188.663 160.178,188.33 161.5,188.5C 161.535,185.262 161.035,182.262 160,179.5C 162.381,178.565 164.881,178.232 167.5,178.5C 169.131,182.793 168.465,186.627 165.5,190C 166.025,190.692 166.692,191.192 167.5,191.5C 168.499,202.146 168.832,212.813 168.5,223.5C 167.07,223.579 165.736,223.246 164.5,222.5C 163.182,211.915 162.515,211.915 162.5,222.5C 161.5,222.5 160.5,222.5 159.5,222.5C 158.833,218.5 158.167,218.5 157.5,222.5C 156.167,222.5 154.833,222.5 153.5,222.5C 153.042,212.005 152.042,212.005 150.5,222.5C 149.5,222.5 148.5,222.5 147.5,222.5C 147.11,219.161 146.61,215.827 146,212.5C 145.558,210.321 144.558,209.655 143,210.5C 140.895,204.861 138.895,199.195 137,193.5C 136.824,190.118 136.324,186.785 135.5,183.5C 132.525,180.496 130.858,176.829 130.5,172.5C 131.833,172.5 133.167,172.5 134.5,172.5C 134.5,173.5 134.5,174.5 134.5,175.5C 135.5,175.5 136.5,175.5 137.5,175.5C 137.442,179.701 138.442,180.201 140.5,177C 137.94,173.969 138.606,173.136 142.5,174.5 Z"/></g>
<g><path style="opacity:0.569" fill="#addbf1" d="M 148.5,185.5 C 150.074,187.102 150.741,189.102 150.5,191.5C 148.926,189.898 148.259,187.898 148.5,185.5 Z"/></g>
<g><path style="opacity:1" fill="#1f88c8" d="M 285.5,158.5 C 288.167,158.5 290.833,158.5 293.5,158.5C 293.171,172.344 293.504,186.01 294.5,199.5C 294.5,200.167 294.5,200.833 294.5,201.5C 294.876,205.256 296.543,208.256 299.5,210.5C 309.478,211.499 319.478,211.832 329.5,211.5C 329.5,215.5 329.5,219.5 329.5,223.5C 319.14,223.704 308.806,223.371 298.5,222.5C 296.565,221.85 294.565,221.517 292.5,221.5C 290.833,219.5 289.167,217.5 287.5,215.5C 285.577,210.902 283.743,206.235 282,201.5C 281.333,188.167 281.333,174.833 282,161.5C 283.145,160.364 284.312,159.364 285.5,158.5 Z"/></g>
<g><path style="opacity:0.431" fill="#badef2" d="M 137.5,201.5 C 141.537,208.599 144.204,216.265 145.5,224.5C 142.462,217.057 139.796,209.391 137.5,201.5 Z"/></g>
<g><path style="opacity:0.28" fill="#a9d6f0" d="M 331.5,175.5 C 331.833,175.5 332.167,175.5 332.5,175.5C 329.623,187.59 329.956,199.59 333.5,211.5C 332.883,211.389 332.383,211.056 332,210.5C 331.501,215.489 331.334,220.489 331.5,225.5C 321.161,225.666 310.828,225.5 300.5,225C 297.524,224.295 294.858,223.129 292.5,221.5C 294.565,221.517 296.565,221.85 298.5,222.5C 299.263,223.268 300.263,223.768 301.5,224C 311.161,224.5 320.828,224.666 330.5,224.5C 330.5,219.833 330.5,215.167 330.5,210.5C 321.494,210.666 312.494,210.5 303.5,210C 302.944,209.617 302.611,209.117 302.5,208.5C 312.15,209.755 321.817,209.755 331.5,208.5C 329.975,202.963 329.309,197.296 329.5,191.5C 329.276,185.902 329.943,180.569 331.5,175.5 Z"/></g>
<g><path style="opacity:0.211" fill="#a3d1eb" d="M 344.5,197.5 C 346.129,199.858 347.295,202.524 348,205.5C 349.214,207.049 350.714,208.215 352.5,209C 358.833,209.667 365.167,209.667 371.5,209C 373.887,208.436 375.887,207.27 377.5,205.5C 377.084,207.752 375.751,209.252 373.5,210C 366.167,212 358.833,212 351.5,210C 349.34,208.668 347.34,207.168 345.5,205.5C 345.167,202.833 344.833,200.167 344.5,197.5 Z"/></g>
<g><path style="opacity:0.204" fill="#bee2f6" d="M 413.5,198.5 C 421.5,198.5 429.5,198.5 437.5,198.5C 440.287,199.378 441.62,201.378 441.5,204.5C 441.62,207.622 440.287,209.622 437.5,210.5C 424.833,210.5 412.167,210.5 399.5,210.5C 399.5,215.167 399.5,219.833 399.5,224.5C 398.513,219.695 398.179,214.695 398.5,209.5C 411.837,209.667 425.171,209.5 438.5,209C 439.795,206.199 439.795,203.366 438.5,200.5C 430.01,199.833 421.676,199.167 413.5,198.5 Z"/></g>
<g><path style="opacity:0.255" fill="#bfe3f0" d="M 281.5,207.5 C 283.771,209.612 285.104,212.279 285.5,215.5C 283.127,213.421 281.794,210.754 281.5,207.5 Z"/></g>
<g><path style="opacity:0.86" fill="#4d96c3" d="M 294.5,201.5 C 295.167,201.833 295.833,202.167 296.5,202.5C 296.5,202.833 296.5,203.167 296.5,203.5C 297.288,206.621 299.288,208.288 302.5,208.5C 302.611,209.117 302.944,209.617 303.5,210C 312.494,210.5 321.494,210.666 330.5,210.5C 330.5,215.167 330.5,219.833 330.5,224.5C 320.828,224.666 311.161,224.5 301.5,224C 300.263,223.768 299.263,223.268 298.5,222.5C 308.806,223.371 319.14,223.704 329.5,223.5C 329.5,219.5 329.5,215.5 329.5,211.5C 319.478,211.832 309.478,211.499 299.5,210.5C 296.543,208.256 294.876,205.256 294.5,201.5 Z"/></g>
<g><path style="opacity:0.753" fill="#78b5da" d="M 437.5,210.5 C 437.5,211.167 437.167,211.5 436.5,211.5C 424.5,211.5 412.5,211.5 400.5,211.5C 400.5,215.833 400.5,220.167 400.5,224.5C 400.167,224.5 399.833,224.5 399.5,224.5C 399.5,219.833 399.5,215.167 399.5,210.5C 412.167,210.5 424.833,210.5 437.5,210.5 Z"/></g>
<g><path style="opacity:1" fill="#2789c7" d="M 271.5,187.5 C 271.833,189.833 273.167,191.167 275.5,191.5C 276.338,191.842 276.672,192.508 276.5,193.5C 279.109,200.819 279.109,208.152 276.5,215.5C 274.049,218.277 271.049,220.277 267.5,221.5C 267.5,220.167 267.5,218.833 267.5,217.5C 266.127,217.657 264.793,217.49 263.5,217C 263.36,215.736 263.36,214.569 263.5,213.5C 262.833,213.833 262.167,214.167 261.5,214.5C 260.304,214.154 260.304,213.654 261.5,213C 257.5,212.333 253.5,212.333 249.5,213C 250.5,213.333 251.5,213.667 252.5,214C 250.781,215.057 248.947,215.89 247,216.5C 244.315,215.42 241.315,215.42 238,216.5C 236.392,216.026 236.226,215.359 237.5,214.5C 239.444,213.811 241.444,213.311 243.5,213C 241.68,212.8 240.347,211.966 239.5,210.5C 247.42,210.815 255.253,210.482 263,209.5C 265.141,205.679 264.974,202.012 262.5,198.5C 257.9,197.557 253.233,197.223 248.5,197.5C 248.5,193.167 248.5,188.833 248.5,184.5C 256.418,183.944 264.085,184.944 271.5,187.5 Z"/></g>
<g><path style="opacity:0.365" fill="#add6f1" d="M 221.5,210.5 C 223.25,211.659 224.25,213.326 224.5,215.5C 222.273,214.599 221.273,212.933 221.5,210.5 Z"/></g>
<g><path style="opacity:1" fill="#1e88c9" d="M 233.5,203.5 C 235.471,205.808 237.471,208.142 239.5,210.5C 240.347,211.966 241.68,212.8 243.5,213C 241.444,213.311 239.444,213.811 237.5,214.5C 236.226,215.359 236.392,216.026 238,216.5C 241.315,215.42 244.315,215.42 247,216.5C 248.947,215.89 250.781,215.057 252.5,214C 251.5,213.667 250.5,213.333 249.5,213C 253.5,212.333 257.5,212.333 261.5,213C 260.304,213.654 260.304,214.154 261.5,214.5C 262.167,214.167 262.833,213.833 263.5,213.5C 263.36,214.569 263.36,215.736 263.5,217C 264.793,217.49 266.127,217.657 267.5,217.5C 267.5,218.833 267.5,220.167 267.5,221.5C 267.027,222.906 266.027,223.573 264.5,223.5C 254.417,223.829 244.417,223.163 234.5,221.5C 233.005,221.011 231.671,220.345 230.5,219.5C 228.987,217.484 228.153,215.151 228,212.5C 227.259,211.359 226.425,211.359 225.5,212.5C 219.805,200.098 219.138,187.432 223.5,174.5C 224.192,175.025 224.692,175.692 225,176.5C 226.011,175.663 227.178,175.33 228.5,175.5C 228.351,174.448 228.517,173.448 229,172.5C 231.55,171.02 233.383,171.687 234.5,174.5C 233.469,175.7 232.635,177.034 232,178.5C 230.56,185.993 230.393,193.493 231.5,201C 231.684,202.376 232.351,203.209 233.5,203.5 Z"/></g>
<g><path style="opacity:0.196" fill="#bfe1f1" d="M 392.5,209.5 C 392.539,212.089 391.539,214.089 389.5,215.5C 389.654,213.03 390.654,211.03 392.5,209.5 Z"/></g>
<g><path style="opacity:1" fill="#1d88ca" d="M 403.5,212.5 C 414.5,212.5 425.5,212.5 436.5,212.5C 437.833,212.5 439.167,212.5 440.5,212.5C 440.174,214.661 439.174,216.494 437.5,218C 440.784,218.981 443.451,218.147 445.5,215.5C 447.915,215.719 448.915,217.052 448.5,219.5C 446.5,219.5 444.5,219.5 442.5,219.5C 442.5,220.5 442.5,221.5 442.5,222.5C 429.5,222.5 416.5,222.5 403.5,222.5C 403.5,219.167 403.5,215.833 403.5,212.5 Z"/></g>
<g><path style="opacity:0.325" fill="#b2dbed" d="M 333.5,211.5 C 336.138,214.474 338.805,217.474 341.5,220.5C 337.435,218.767 334.768,215.767 333.5,211.5 Z"/></g>
<g><path style="opacity:1" fill="#1f88c9" d="M 388.5,173.5 C 389.5,173.5 390.5,173.5 391.5,173.5C 391.232,175.099 391.566,176.432 392.5,177.5C 394.15,183.25 394.816,189.25 394.5,195.5C 393.778,195.082 393.278,194.416 393,193.5C 393.436,198.743 391.936,203.243 388.5,207C 389.767,208.796 389.767,210.629 388.5,212.5C 386.833,213.5 385.5,214.833 384.5,216.5C 382.069,214.81 379.735,214.643 377.5,216C 379.059,216.98 380.726,217.813 382.5,218.5C 371.624,223.552 360.291,224.718 348.5,222C 346.47,220.069 344.137,218.569 341.5,217.5C 340.106,216.313 340.273,215.646 342,215.5C 344.886,217.225 348.052,217.892 351.5,217.5C 351.688,215.897 351.188,214.563 350,213.5C 346.458,216.408 343.625,215.741 341.5,211.5C 342.304,208.967 343.637,206.967 345.5,205.5C 347.34,207.168 349.34,208.668 351.5,210C 358.833,212 366.167,212 373.5,210C 375.751,209.252 377.084,207.752 377.5,205.5C 378.79,204.942 379.623,203.942 380,202.5C 382.111,194.078 381.944,185.745 379.5,177.5C 384.399,178.408 386.732,181.408 386.5,186.5C 387.086,186.291 387.586,185.957 388,185.5C 388.392,182.812 388.892,180.145 389.5,177.5C 389.167,176.833 388.833,176.167 388.5,175.5C 387.186,176.313 386.019,177.313 385,178.5C 383.26,176.816 382.094,174.982 381.5,173C 383.049,171.786 384.215,170.286 385,168.5C 385.333,169.833 385.667,171.167 386,172.5C 386.671,173.252 387.504,173.586 388.5,173.5 Z"/></g>
<g><path style="opacity:0.322" fill="#b4d9ed" d="M 88.5,211.5 C 90.5805,215.328 92.9139,218.994 95.5,222.5C 91.4318,220.05 89.0985,216.384 88.5,211.5 Z"/></g>
<g><path style="opacity:1" fill="#288ac6" d="M 96.5,191.5 C 97.0652,193.42 98.0652,195.087 99.5,196.5C 99.5275,199.916 100.528,202.916 102.5,205.5C 102.5,206.833 102.5,208.167 102.5,209.5C 102.414,210.496 102.748,211.329 103.5,212C 105.545,212.49 107.545,212.323 109.5,211.5C 111.545,212.923 112.545,214.923 112.5,217.5C 110.097,217.607 108.264,216.607 107,214.5C 104.821,215.396 102.988,216.729 101.5,218.5C 99.5017,216.666 97.1684,215.666 94.5,215.5C 94.281,216.675 94.6143,217.675 95.5,218.5C 98.8468,219.609 101.847,221.276 104.5,223.5C 107.492,222.387 110.325,221.054 113,219.5C 113.333,219.833 113.667,220.167 114,220.5C 117.34,218.406 120.174,215.739 122.5,212.5C 120.185,221.137 114.518,225.137 105.5,224.5C 102.783,224.386 100.116,224.052 97.5,223.5C 96.5084,223.672 95.8417,223.338 95.5,222.5C 92.9139,218.994 90.5805,215.328 88.5,211.5C 88.1234,207.327 87.1234,203.327 85.5,199.5C 86.9755,200.262 88.3088,200.595 89.5,200.5C 88.4798,202.432 88.3131,204.432 89,206.5C 90.0361,209.295 91.3695,211.962 93,214.5C 93.1968,212.139 94.3635,210.472 96.5,209.5C 97.5468,206.934 98.2135,204.267 98.5,201.5C 97.8985,197.622 97.0652,197.622 96,201.5C 95.8281,198.174 95.9947,194.841 96.5,191.5 Z"/></g>
<g><path style="opacity:0.525" fill="#b4ddf2" d="M 285.5,215.5 C 286.167,215.5 286.833,215.5 287.5,215.5C 289.167,217.5 290.833,219.5 292.5,221.5C 289.573,220.243 287.239,218.243 285.5,215.5 Z"/></g>
<g><path style="opacity:0.012" fill="#d9ecf7" d="M 224.5,215.5 C 226.167,216.5 227.5,217.833 228.5,219.5C 226.167,219.167 224.833,217.833 224.5,215.5 Z"/></g>
<g><path style="opacity:0.118" fill="#bbe0f2" d="M 389.5,215.5 C 387.363,218.973 384.363,221.306 380.5,222.5C 383.159,219.854 386.159,217.521 389.5,215.5 Z"/></g>
<g><path style="opacity:0.027" fill="#c0e4f4" d="M 122.5,212.5 C 122.833,212.5 123.167,212.5 123.5,212.5C 119.654,225.082 111.321,229.249 98.5,225C 97.944,224.617 97.6107,224.117 97.5,223.5C 100.116,224.052 102.783,224.386 105.5,224.5C 114.518,225.137 120.185,221.137 122.5,212.5 Z"/></g>
<g><path style="opacity:0.357" fill="#add8ed" d="M 341.5,220.5 C 343.967,220.755 345.967,221.755 347.5,223.5C 345.033,223.245 343.033,222.245 341.5,220.5 Z"/></g>
<g><path style="opacity:1" fill="#3284b4" d="M 436.5,211.5 C 436.5,211.833 436.5,212.167 436.5,212.5C 425.5,212.5 414.5,212.5 403.5,212.5C 402.223,213.694 401.556,215.36 401.5,217.5C 401.54,219.429 401.873,221.262 402.5,223C 414.829,223.5 427.162,223.667 439.5,223.5C 426.677,224.495 413.677,224.829 400.5,224.5C 400.5,220.167 400.5,215.833 400.5,211.5C 412.5,211.5 424.5,211.5 436.5,211.5 Z"/></g>
<g><path style="opacity:0.247" fill="#b6e2f8" d="M 276.5,215.5 C 274.279,220.213 270.612,223.38 265.5,225C 256.5,225.667 247.5,225.667 238.5,225C 235.911,223.803 233.244,222.803 230.5,222C 229.619,221.292 228.953,220.458 228.5,219.5C 229.167,219.5 229.833,219.5 230.5,219.5C 231.671,220.345 233.005,221.011 234.5,221.5C 236.019,222.41 237.685,223.243 239.5,224C 248.01,224.823 256.344,224.657 264.5,223.5C 266.027,223.573 267.027,222.906 267.5,221.5C 271.049,220.277 274.049,218.277 276.5,215.5 Z"/></g>
<g><path style="opacity:1" fill="#408bba" d="M 234.5,221.5 C 244.417,223.163 254.417,223.829 264.5,223.5C 256.344,224.657 248.01,224.823 239.5,224C 237.685,223.243 236.019,222.41 234.5,221.5 Z"/></g>
<g><path style="opacity:0.231" fill="#b2dff6" d="M 380.5,222.5 C 378.723,223.6 376.723,224.434 374.5,225C 366.5,225.667 358.5,225.667 350.5,225C 349.263,224.768 348.263,224.268 347.5,223.5C 352.48,223.999 357.48,224.332 362.5,224.5C 368.688,224.564 374.688,223.897 380.5,222.5 Z"/></g>
<g><path style="opacity:0.251" fill="#b2dff8" d="M 454.5,199.5 C 454.833,199.5 455.167,199.5 455.5,199.5C 458.484,211.707 454.151,220.207 442.5,225C 427.994,225.827 413.661,225.661 399.5,224.5C 399.833,224.5 400.167,224.5 400.5,224.5C 413.677,224.829 426.677,224.495 439.5,223.5C 447.483,223.198 452.149,219.198 453.5,211.5C 454.483,207.702 454.817,203.702 454.5,199.5 Z"/></g>
</svg>
